<svg width="22" height="22" viewBox="0 0 22 22" fill="none" xmlns="http://www.w3.org/2000/svg">
<path d="M0.767442 0.767442H2.54458C3.64763 0.767442 4.51577 1.71907 4.42385 2.81395L3.57613 13.0056C3.54303 13.4004 3.59215 13.7978 3.72038 14.1727C3.84861 14.5475 4.05315 14.8915 4.32104 15.183C4.58893 15.4745 4.91433 15.707 5.27662 15.8659C5.63891 16.0248 6.03019 16.1066 6.42568 16.106H17.303C18.7737 16.106 20.0606 14.8986 20.1729 13.4353L20.7245 5.76093C20.847 4.06233 19.5601 2.68093 17.8545 2.68093H4.66897M7.91684 6.90698H20.1729M15.3216 21.2326C15.6602 21.2326 15.9849 21.0978 16.2243 20.8579C16.4637 20.6181 16.5982 20.2927 16.5982 19.9535C16.5982 19.6143 16.4637 19.2889 16.2243 19.049C15.9849 18.8092 15.6602 18.6744 15.3216 18.6744C14.983 18.6744 14.6582 18.8092 14.4188 19.049C14.1794 19.2889 14.0449 19.6143 14.0449 19.9535C14.0449 20.2927 14.1794 20.6181 14.4188 20.8579C14.6582 21.0978 14.983 21.2326 15.3216 21.2326ZM7.15083 21.2326C7.48943 21.2326 7.81415 21.0978 8.05358 20.8579C8.293 20.6181 8.42751 20.2927 8.42751 19.9535C8.42751 19.6143 8.293 19.2889 8.05358 19.049C7.81415 18.8092 7.48943 18.6744 7.15083 18.6744C6.81223 18.6744 6.48751 18.8092 6.24808 19.049C6.00866 19.2889 5.87415 19.6143 5.87415 19.9535C5.87415 20.2927 6.00866 20.6181 6.24808 20.8579C6.48751 21.0978 6.81223 21.2326 7.15083 21.2326Z" stroke="white" stroke-width="1.5" stroke-miterlimit="10" stroke-linecap="round" stroke-linejoin="round"/>
</svg>
